<?xml version="1.0" encoding="iso-8859-1"?>
<!-- Generator: Adobe Illustrator 19.0.0, SVG Export Plug-In . SVG Version: 6.00 Build 0)  -->
<svg version="1.1" id="Layer_1" xmlns="http://www.w3.org/2000/svg" xmlns:xlink="http://www.w3.org/1999/xlink" x="0px" y="0px"
	 viewBox="0 0 512 512" style="enable-background:new 0 0 512 512;" xml:space="preserve">
<path style="fill:#FF943D;" d="M461.02,247.004c15.69,0,28.953-11.247,31.536-26.743c2.901-17.405-8.899-33.925-26.303-36.826
	c-0.004-0.001-0.009-0.001-0.013-0.002l-195.946-32.327c-2.317-0.383-4.687,0.273-6.479,1.793c-1.791,1.52-2.824,3.751-2.824,6.1v48
	c0,3.906,2.82,7.24,6.671,7.889l188.068,31.676C457.48,246.856,459.259,247.004,461.02,247.004z"/>
<path style="fill:#FC8626;" d="M461.02,231.004c-1.761,0-3.541-0.148-5.29-0.439l-188.068-31.676
	c-3.852-0.648-6.671-3.983-6.671-7.889v16c0,3.906,2.82,7.24,6.671,7.889l188.068,31.676c1.749,0.292,3.529,0.439,5.29,0.439
	c15.69,0,28.953-11.247,31.536-26.743c0.759-4.551,0.504-9.038-0.585-13.24C488.359,221.074,475.762,231.004,461.02,231.004z"/>
<path style="fill:#FF943D;" d="M466.252,288.436l-144-24c-8.431-1.407-16.904,0.556-23.86,5.525
	c-6.956,4.968-11.561,12.348-12.966,20.779s0.557,16.905,5.525,23.86s12.348,11.56,20.779,12.965l144,24
	c1.749,0.292,3.529,0.439,5.29,0.439c15.69,0,28.953-11.247,31.536-26.743c1.405-8.431-0.557-16.905-5.525-23.86
	C482.063,294.445,474.683,289.841,466.252,288.436z"/>
<path style="fill:#FC8626;" d="M461.02,336.012c-1.761,0-3.541-0.148-5.29-0.439l-144-24c-8.431-1.405-15.811-6.01-20.779-12.965
	c-2.32-3.247-3.975-6.828-4.947-10.578c-0.227,0.891-0.425,1.793-0.578,2.71c-1.405,8.431,0.557,16.905,5.525,23.86
	s12.348,11.56,20.779,12.965l144,24c1.749,0.292,3.529,0.439,5.29,0.439c15.69,0,28.953-11.247,31.536-26.743
	c0.749-4.491,0.532-8.993-0.576-13.272C488.383,326.063,475.777,336.012,461.02,336.012z"/>
<path style="fill:#FF943D;" d="M466.252,392.436l-144-24c-8.431-1.406-16.904,0.556-23.86,5.525
	c-6.956,4.968-11.561,12.348-12.966,20.779s0.557,16.905,5.525,23.86s12.348,11.56,20.779,12.965l117.26,19.543V504
	c0,4.418,3.582,8,8,8h48c4.418,0,8-3.582,8-8v-80C492.991,408.292,481.746,395.018,466.252,392.436z"/>
<path style="fill:#FC8626;" d="M444.991,504v-62.107c0-3.911-2.827-7.248-6.685-7.891l-109.973-18.329
	c-8.367-1.395-16.026-5.811-21.067-12.633c-5.199-7.035-7.273-15.686-5.839-24.293c0.462-2.772,1.277-5.427,2.4-7.923
	c-2.326,1.055-4.547,2.398-6.617,4.022c-6.403,5.022-10.672,12.404-11.872,20.453c-1.22,8.184,0.725,16.376,5.505,23.148
	c5.054,7.161,12.957,11.796,21.603,13.237l116.545,19.424V504c0,4.418,3.582,8,8,8h16C448.573,512,444.991,508.418,444.991,504z"/>
<path style="fill:#FFD761;" d="M317.019,334.005c6.417,0,12.789-1.655,18.427-4.788l144-80c8.873-4.929,15.295-13.019,18.083-22.778
	c2.789-9.76,1.61-20.021-3.32-28.894c-10.175-18.316-33.356-24.939-51.672-14.763l-144,80c-8.873,4.929-15.295,13.019-18.083,22.778
	c-2.789,9.76-1.61,20.021,3.32,28.894C290.473,326.514,303.212,334.005,317.019,334.005z"/>
<path style="fill:#FFCB2E;" d="M494.209,197.545c-0.412-0.742-0.853-1.458-1.307-2.161c0.296,4.339-0.16,8.743-1.39,13.049
	c-2.788,9.759-9.21,17.849-18.083,22.778l-144,80c-5.639,3.132-12.01,4.788-18.427,4.788c-12.955,0-24.969-6.597-31.936-17.373
	c0.377,5.489,1.957,10.875,4.708,15.828c6.699,12.06,19.438,19.551,33.245,19.551c6.417,0,12.789-1.655,18.427-4.788l144-80
	c8.873-4.929,15.295-13.019,18.083-22.778C500.318,216.68,499.139,206.418,494.209,197.545z"/>
<path style="fill:#FFD761;" d="M471.431,283.462c-9.759-2.789-20.02-1.609-28.894,3.32l-144,80
	c-8.873,4.929-15.295,13.019-18.083,22.778c-2.789,9.76-1.61,20.021,3.32,28.894c6.699,12.06,19.438,19.551,33.245,19.551
	c6.417,0,12.789-1.655,18.427-4.788l144-80c8.873-4.929,15.295-13.019,18.083-22.778c2.789-9.76,1.61-20.021-3.32-28.894
	C489.28,292.672,481.191,286.25,471.431,283.462z"/>
<path style="fill:#FFCB2E;" d="M494.209,301.545c-0.412-0.742-0.854-1.46-1.31-2.167c0.3,4.349-0.154,8.762-1.387,13.078
	c-2.788,9.759-9.21,17.849-18.083,22.778l-144,80c-5.639,3.132-12.01,4.788-18.427,4.788c-12.954,0-24.966-6.595-31.934-17.368
	c0.38,5.48,1.959,10.856,4.706,15.8c6.699,12.06,19.438,19.551,33.245,19.551c6.417,0,12.789-1.655,18.427-4.788l144-80
	c8.873-4.929,15.295-13.019,18.083-22.778C500.318,320.68,499.139,310.418,494.209,301.545z"/>
<g>
	<polygon style="fill:#FFE48C;" points="395.862,208.713 432.026,275.562 446.013,267.792 409.849,200.942 	"/>
	<polygon style="fill:#FFE48C;" points="333.341,243.447 369.505,310.296 383.492,302.525 347.328,235.676 	"/>
	<polygon style="fill:#FFE48C;" points="396.689,312.253 432.853,379.103 446.84,371.332 410.676,304.483 	"/>
	<polygon style="fill:#FFE48C;" points="334.168,346.987 370.332,413.837 384.319,406.066 348.155,339.217 	"/>
</g>
<g>
	<path style="fill:#857B6D;" d="M204.991,456h-64c-4.418,0-8-3.582-8-8s3.582-8,8-8h64c4.418,0,8,3.582,8,8S209.41,456,204.991,456z
		"/>
	<path style="fill:#857B6D;" d="M204.991,408h-64c-4.418,0-8-3.582-8-8s3.582-8,8-8h64c4.418,0,8,3.582,8,8S209.41,408,204.991,408z
		"/>
	<path style="fill:#857B6D;" d="M204.991,360h-64c-4.418,0-8-3.582-8-8s3.582-8,8-8h64c4.418,0,8,3.582,8,8S209.41,360,204.991,360z
		"/>
	<path style="fill:#857B6D;" d="M204.991,312h-64c-4.418,0-8-3.582-8-8s3.582-8,8-8h64c4.418,0,8,3.582,8,8S209.41,312,204.991,312z
		"/>
	<path style="fill:#857B6D;" d="M204.991,264h-64c-4.418,0-8-3.582-8-8s3.582-8,8-8h64c4.418,0,8,3.582,8,8S209.41,264,204.991,264z
		"/>
	<path style="fill:#857B6D;" d="M276.991,200h-184v-48h24c4.418,0,8-3.582,8-8s-3.582-8-8-8h-88c0-4.418-3.582-8-8-8s-8,3.582-8,8
		v72c0,4.418,3.582,8,8,8h256c4.418,0,8-3.582,8-8S281.41,200,276.991,200z M76.991,200h-16v-48h16V200z M28.991,152h16v48h-16
		C28.991,200,28.991,152,28.991,152z"/>
</g>
<g>
	<path style="fill:#9FD444;" d="M132.991,512h-8c-4.418,0-8-3.582-8-8V72h24v432C140.991,508.418,137.41,512,132.991,512z"/>
	<path style="fill:#9FD444;" d="M220.991,512h-8c-4.418,0-8-3.582-8-8V72h24v432C228.991,508.418,225.41,512,220.991,512z"/>
</g>
<path style="fill:#FFD761;" d="M276.991,136h-72v80h72c4.418,0,8-3.582,8-8v-64C284.991,139.582,281.41,136,276.991,136z"/>
<g>
	<path style="fill:#AA6BB0;" d="M172.991,0c-44.112,0-80,35.888-80,80c0,4.418,3.582,8,8,8h144c4.418,0,8-3.582,8-8
		C252.991,35.888,217.104,0,172.991,0z"/>
	<path style="fill:#AA6BB0;" d="M116.991,80c0-40.034,29.56-73.291,68-79.098C181.075,0.31,177.069,0,172.991,0
		c-44.112,0-80,35.888-80,80c0,4.418,3.582,8,8,8h24C120.573,88,116.991,84.418,116.991,80z"/>
</g>
<g>
</g>
<g>
</g>
<g>
</g>
<g>
</g>
<g>
</g>
<g>
</g>
<g>
</g>
<g>
</g>
<g>
</g>
<g>
</g>
<g>
</g>
<g>
</g>
<g>
</g>
<g>
</g>
<g>
</g>
</svg>
